<svg xmlns="http://www.w3.org/2000/svg" width="1440" height="900" viewBox="0 0 1440 900" font-family="Arial, sans-serif">
  <defs>
    <linearGradient id="sbGrad" x1="0%" y1="0%" x2="0%" y2="100%">
      <stop offset="0%" style="stop-color:#7B0000"/><stop offset="100%" style="stop-color:#5D0000"/>
    </linearGradient>
    <linearGradient id="tbGrad" x1="0%" y1="0%" x2="100%" y2="0%">
      <stop offset="0%" style="stop-color:#C0392B"/><stop offset="100%" style="stop-color:#E74C3C"/>
    </linearGradient>
    <linearGradient id="thGrad" x1="0%" y1="0%" x2="100%" y2="0%">
      <stop offset="0%" style="stop-color:#C0392B"/><stop offset="100%" style="stop-color:#E74C3C"/>
    </linearGradient>
  </defs>
  <rect width="1440" height="900" fill="#F5F5F5"/>
  <!-- Sidebar -->
  <rect x="0" y="0" width="250" height="900" fill="url(#sbGrad)"/>
  <circle cx="36" cy="36" r="22" fill="white"/>
  <text x="36" y="42" text-anchor="middle" font-size="13" font-weight="bold" fill="#C0392B">LP</text>
  <text x="66" y="30" font-size="15" font-weight="bold" fill="white">Little Palembang</text>
  <text x="66" y="48" font-size="11" fill="rgba(255,255,255,0.6)">Administrator</text>
  <line x1="0" y1="68" x2="250" y2="68" stroke="rgba(255,255,255,0.1)" stroke-width="1"/>
  <text x="24" y="103" font-size="16" fill="rgba(255,255,255,0.65)">📊</text>
  <text x="50" y="103" font-size="14" fill="rgba(255,255,255,0.65)">Dashboard</text>
  <text x="24" y="143" font-size="16" fill="rgba(255,255,255,0.65)">🍽️</text>
  <text x="50" y="143" font-size="14" fill="rgba(255,255,255,0.65)">Menu</text>
  <rect x="0" y="116" width="4" height="44" fill="white"/>
  <rect x="0" y="116" width="250" height="44" fill="rgba(255,255,255,0.12)"/>
  <text x="24" y="143" font-size="16" fill="white">🪑</text>
  <text x="50" y="143" font-size="14" font-weight="600" fill="white">Meja &amp; QR</text>
  <text x="24" y="183" font-size="16" fill="rgba(255,255,255,0.65)">💳</text>
  <text x="50" y="183" font-size="14" fill="rgba(255,255,255,0.65)">Metode Pembayaran</text>
  <text x="24" y="223" font-size="16" fill="rgba(255,255,255,0.65)">📋</text>
  <text x="50" y="223" font-size="14" fill="rgba(255,255,255,0.65)">Pesanan</text>
  <text x="24" y="263" font-size="16" fill="rgba(255,255,255,0.65)">📈</text>
  <text x="50" y="263" font-size="14" fill="rgba(255,255,255,0.65)">Laporan</text>
  <line x1="0" y1="820" x2="250" y2="820" stroke="rgba(255,255,255,0.1)" stroke-width="1"/>
  <rect x="12" y="830" width="226" height="30" rx="6" fill="rgba(255,255,255,0.1)"/>
  <text x="125" y="849" text-anchor="middle" font-size="13" fill="white">🌙 Dark Mode</text>
  <rect x="12" y="866" width="226" height="28" rx="6" fill="#E74C3C"/>
  <text x="125" y="884" text-anchor="middle" font-size="13" font-weight="600" fill="white">→ Logout</text>
  <!-- Topbar (no page title here) -->
  <rect x="250" y="0" width="1190" height="52" fill="url(#tbGrad)"/>
  <text x="270" y="32" font-size="22" fill="white">☰</text>
  <text x="1410" y="33" text-anchor="end" font-size="13" fill="white">→ Logout</text>
  <!-- Page title in content-header (inside content-wrapper) -->
  <text x="270" y="84" font-size="22" font-weight="bold" fill="#333">Meja &amp; QR</text>
  <!-- Add button -->
  <rect x="1250" y="66" width="140" height="34" rx="6" fill="#3498DB"/>
  <text x="1320" y="87" text-anchor="middle" font-size="12" fill="white">+ Tambah Meja Baru</text>
  <!-- Table card -->
  <rect x="270" y="104" width="1130" height="680" rx="12" fill="white" stroke="#EEEEEE" stroke-width="1"/>
  <rect x="270" y="104" width="1130" height="48" rx="12" fill="#FAFAFA"/>
  <rect x="270" y="128" width="1130" height="24" fill="#FAFAFA"/>
  <text x="298" y="132" font-size="14" font-weight="bold" fill="#333">🪑 Daftar Meja</text>
  <!-- Table header -->
  <rect x="286" y="164" width="1098" height="36" rx="6" fill="url(#thGrad)"/>
  <text x="304" y="186" font-size="11" font-weight="600" fill="white">NO</text>
  <text x="360" y="186" font-size="11" font-weight="600" fill="white">NOMOR MEJA</text>
  <text x="520" y="186" font-size="11" font-weight="600" fill="white">QR CODE</text>
  <text x="720" y="186" font-size="11" font-weight="600" fill="white">URL TESTING</text>
  <text x="940" y="186" font-size="11" font-weight="600" fill="white">STATUS</text>
  <text x="1060" y="186" font-size="11" font-weight="600" fill="white">VALIDASI LOKASI</text>
  <text x="1260" y="186" font-size="11" font-weight="600" fill="white">AKSI</text>
  <!-- Row 1 -->
  <text x="304" y="240" font-size="13" fill="#333">1</text>
  <text x="360" y="240" font-size="13" font-weight="600" fill="#333">Meja 1</text>
  <!-- QR code box -->
  <rect x="500" y="210" width="90" height="90" rx="4" fill="#F5F5F5" stroke="#EEEEEE" stroke-width="1"/>
  <!-- Simple QR pattern suggestion -->
  <rect x="508" y="218" width="18" height="18" rx="1" fill="#333"/>
  <rect x="530" y="218" width="6" height="6" rx="1" fill="#333"/>
  <rect x="540" y="218" width="6" height="6" rx="1" fill="#333"/>
  <rect x="508" y="240" width="6" height="6" rx="1" fill="#333"/>
  <rect x="564" y="218" width="18" height="18" rx="1" fill="#333"/>
  <rect x="508" y="274" width="18" height="18" rx="1" fill="#333"/>
  <rect x="564" y="274" width="18" height="18" rx="1" fill="#333"/>
  <text x="545" y="315" text-anchor="middle" font-size="11" fill="#555">Meja 1</text>
  <rect x="500" y="316" width="90" height="26" rx="6" fill="#3498DB"/>
  <text x="545" y="332" text-anchor="middle" font-size="11" fill="white">⬇ Download QR</text>
  <!-- URL -->
  <text x="720" y="230" font-size="11" fill="#27AE60">🔗 Buka Halaman Pemesanan</text>
  <text x="720" y="248" font-size="10" fill="#AAAAAA">http://localhost/order/uuid-meja-1</text>
  <!-- Status -->
  <rect x="935" y="224" width="70" height="22" rx="11" fill="#EAFAF1"/>
  <text x="970" y="239" text-anchor="middle" font-size="11" font-weight="600" fill="#27AE60">Tersedia</text>
  <!-- Validasi Lokasi -->
  <rect x="1055" y="224" width="44" height="22" rx="11" fill="#EAFAF1"/>
  <text x="1077" y="239" text-anchor="middle" font-size="11" font-weight="600" fill="#27AE60">Aktif</text>
  <rect x="1055" y="252" width="60" height="24" rx="6" fill="#F39C12"/>
  <text x="1085" y="268" text-anchor="middle" font-size="11" fill="white">Toggle</text>
  <!-- Actions -->
  <rect x="1240" y="222" width="60" height="26" rx="6" fill="#E74C3C"/>
  <text x="1270" y="239" text-anchor="middle" font-size="11" fill="white">🗑 Hapus</text>
  <!-- Row 2 divider -->
  <line x1="286" y1="360" x2="1384" y2="360" stroke="#F5F5F5" stroke-width="1"/>
  <text x="304" y="400" font-size="13" fill="#333">2</text>
  <text x="360" y="400" font-size="13" font-weight="600" fill="#333">Meja 2</text>
  <rect x="500" y="370" width="90" height="90" rx="4" fill="#F5F5F5" stroke="#EEEEEE" stroke-width="1"/>
  <rect x="508" y="378" width="18" height="18" rx="1" fill="#333"/>
  <rect x="564" y="378" width="18" height="18" rx="1" fill="#333"/>
  <rect x="508" y="434" width="18" height="18" rx="1" fill="#333"/>
  <rect x="564" y="434" width="18" height="18" rx="1" fill="#333"/>
  <text x="545" y="475" text-anchor="middle" font-size="11" fill="#555">Meja 2</text>
  <rect x="500" y="476" width="90" height="26" rx="6" fill="#3498DB"/>
  <text x="545" y="492" text-anchor="middle" font-size="11" fill="white">⬇ Download QR</text>
  <text x="720" y="390" font-size="11" fill="#27AE60">🔗 Buka Halaman Pemesanan</text>
  <text x="720" y="408" font-size="10" fill="#AAAAAA">http://localhost/order/uuid-meja-2</text>
  <rect x="935" y="384" width="56" height="22" rx="11" fill="#FDEDEC"/>
  <text x="963" y="399" text-anchor="middle" font-size="11" font-weight="600" fill="#C0392B">Terisi</text>
  <rect x="1055" y="384" width="44" height="22" rx="11" fill="#EAFAF1"/>
  <text x="1077" y="399" text-anchor="middle" font-size="11" font-weight="600" fill="#27AE60">Aktif</text>
  <rect x="1055" y="412" width="60" height="24" rx="6" fill="#F39C12"/>
  <text x="1085" y="428" text-anchor="middle" font-size="11" fill="white">Toggle</text>
  <rect x="1176" y="382" width="60" height="26" rx="6" fill="#F39C12"/>
  <text x="1206" y="399" text-anchor="middle" font-size="11" fill="white">Kosongkan</text>
  <rect x="1246" y="382" width="60" height="26" rx="6" fill="#E74C3C"/>
  <text x="1276" y="399" text-anchor="middle" font-size="11" fill="white">🗑 Hapus</text>
  <!-- Footer -->
  <rect x="250" y="848" width="1190" height="36" fill="#F8F8F8" stroke="#EEEEEE" stroke-width="1"/>
  <text x="845" y="862" text-anchor="middle" font-size="11" font-weight="bold" fill="#555">Copyright © 2025 Little Palembang.</text>
  <text x="845" y="876" text-anchor="middle" font-size="10" fill="#999">All rights reserved. Lorok Pakjo, Kec. Ilir Bar. I, Kota Palembang, Sumatera Selatan.</text>
</svg>
