<svg xmlns="http://www.w3.org/2000/svg" width="430" height="860" viewBox="0 0 430 860" font-family="Arial, sans-serif">
  <rect x="3" y="3" width="424" height="854" rx="44" fill="#333333" stroke="#222222" stroke-width="2"/>
  <rect x="16" y="16" width="398" height="828" rx="36" fill="#F5F5F5"/>
  <rect x="152" y="16" width="130" height="26" rx="13" fill="#333333"/>
  <rect x="16" y="16" width="398" height="36" rx="36" fill="#EEEEEE"/>
  <rect x="16" y="36" width="398" height="16" fill="#EEEEEE"/>
  <!-- Topbar -->
  <rect x="16" y="52" width="398" height="52" fill="#FFFFFF" stroke="#EEEEEE" stroke-width="1"/>
  <rect x="150" y="67" width="120" height="10" rx="2" fill="#DDDDDD"/>
  <!-- Success icon circle -->
  <rect x="171" y="116" width="88" height="88" rx="44" fill="#DDDDDD"/>
  <text x="215" y="170" text-anchor="middle" font-size="40" fill="#BBBBBB">v</text>
  <!-- Title placeholder -->
  <rect x="120" y="220" width="190" height="14" rx="3" fill="#CCCCCC"/>
  <!-- Order info card -->
  <rect x="28" y="250" width="374" height="154" rx="6" fill="#FFFFFF" stroke="#DDDDDD" stroke-width="1"/>
  <rect x="40" y="274" width="80" height="8" rx="2" fill="#E0E0E0"/>
  <rect x="260" y="274" width="100" height="8" rx="2" fill="#CCCCCC"/>
  <rect x="28" y="294" width="374" height="1" fill="#F5F5F5"/>
  <rect x="40" y="308" width="60" height="8" rx="2" fill="#E0E0E0"/>
  <rect x="260" y="308" width="110" height="8" rx="2" fill="#CCCCCC"/>
  <rect x="28" y="328" width="374" height="1" fill="#F5F5F5"/>
  <rect x="40" y="342" width="70" height="8" rx="2" fill="#E0E0E0"/>
  <rect x="260" y="338" width="70" height="16" rx="8" fill="#EEEEEE"/>
  <rect x="28" y="362" width="374" height="1" fill="#F5F5F5"/>
  <rect x="40" y="376" width="80" height="8" rx="2" fill="#E0E0E0"/>
  <rect x="260" y="376" width="80" height="8" rx="2" fill="#CCCCCC"/>
  <!-- Status tracker card -->
  <rect x="28" y="420" width="374" height="70" rx="6" fill="#FFFFFF" stroke="#DDDDDD" stroke-width="1"/>
  <!-- Step circles (using rect with large rx, not circle element) -->
  <rect x="54" y="449" width="22" height="22" rx="11" fill="#CCCCCC"/>
  <text x="65" y="464" text-anchor="middle" font-size="9" fill="#888888">1</text>
  <text x="65" y="485" text-anchor="middle" font-size="8" fill="#AAAAAA">Pending</text>
  <rect x="164" y="449" width="22" height="22" rx="11" fill="#EEEEEE" stroke="#CCCCCC" stroke-width="1"/>
  <text x="175" y="464" text-anchor="middle" font-size="9" fill="#AAAAAA">2</text>
  <text x="175" y="485" text-anchor="middle" font-size="8" fill="#AAAAAA">Cooking</text>
  <rect x="274" y="449" width="22" height="22" rx="11" fill="#EEEEEE" stroke="#CCCCCC" stroke-width="1"/>
  <text x="285" y="464" text-anchor="middle" font-size="9" fill="#AAAAAA">3</text>
  <text x="285" y="485" text-anchor="middle" font-size="8" fill="#AAAAAA">Served</text>
  <rect x="350" y="449" width="22" height="22" rx="11" fill="#EEEEEE" stroke="#CCCCCC" stroke-width="1"/>
  <text x="361" y="464" text-anchor="middle" font-size="9" fill="#AAAAAA">4</text>
  <text x="361" y="485" text-anchor="middle" font-size="8" fill="#AAAAAA">Done</text>
  <!-- Connector lines -->
  <rect x="76" y="459" width="88" height="2" rx="1" fill="#DDDDDD"/>
  <rect x="186" y="459" width="88" height="2" rx="1" fill="#DDDDDD"/>
  <rect x="296" y="459" width="54" height="2" rx="1" fill="#DDDDDD"/>
  <!-- Order table card -->
  <rect x="28" y="506" width="374" height="160" rx="6" fill="#FFFFFF" stroke="#DDDDDD" stroke-width="1"/>
  <rect x="28" y="506" width="374" height="32" rx="6" fill="#EEEEEE"/>
  <rect x="28" y="522" width="374" height="16" fill="#EEEEEE"/>
  <text x="46" y="527" font-size="9" font-weight="bold" fill="#888888">ITEM</text>
  <text x="240" y="527" font-size="9" font-weight="bold" fill="#888888">QTY</text>
  <text x="290" y="527" font-size="9" font-weight="bold" fill="#888888">HARGA</text>
  <text x="356" y="527" font-size="9" font-weight="bold" fill="#888888">TOTAL</text>
  <rect x="46" y="551" width="130" height="8" rx="2" fill="#E0E0E0"/>
  <rect x="240" y="551" width="18" height="8" rx="2" fill="#E0E0E0"/>
  <rect x="290" y="551" width="50" height="8" rx="2" fill="#E0E0E0"/>
  <rect x="350" y="551" width="36" height="8" rx="2" fill="#E0E0E0"/>
  <rect x="28" y="571" width="374" height="1" fill="#F5F5F5"/>
  <rect x="46" y="585" width="110" height="8" rx="2" fill="#E0E0E0"/>
  <rect x="240" y="585" width="18" height="8" rx="2" fill="#E0E0E0"/>
  <rect x="290" y="585" width="50" height="8" rx="2" fill="#E0E0E0"/>
  <rect x="350" y="585" width="36" height="8" rx="2" fill="#E0E0E0"/>
  <!-- Grand total -->
  <rect x="28" y="680" width="374" height="38" rx="4" fill="#EEEEEE"/>
  <rect x="40" y="694" width="70" height="8" rx="2" fill="#CCCCCC"/>
  <rect x="296" y="694" width="90" height="8" rx="2" fill="#CCCCCC"/>
  <!-- Back button -->
  <rect x="28" y="732" width="374" height="44" rx="6" fill="#CCCCCC"/>
  <rect x="120" y="750" width="200" height="10" rx="2" fill="#AAAAAA"/>
  <text x="215" y="757" text-anchor="middle" font-size="11" fill="#888888">Kembali ke Menu</text>
</svg>
