<svg xmlns="http://www.w3.org/2000/svg" width="1440" height="960" viewBox="0 0 1440 960" font-family="Arial, sans-serif">
  <rect width="1440" height="960" fill="#F0F0F0"/>
  <!-- Sidebar -->
  <rect x="0" y="0" width="240" height="960" fill="#444444"/>
  <rect x="14" y="14" width="40" height="40" rx="20" fill="#666666"/>
  <rect x="62" y="20" width="110" height="9" rx="2" fill="#666666"/>
  <rect x="62" y="34" width="80" height="7" rx="2" fill="#555555"/>
  <rect x="0" y="68" width="240" height="1" fill="rgba(255,255,255,0.1)"/>
  <rect x="18" y="82" width="16" height="16" rx="2" fill="#555555"/>
  <text x="42" y="95" font-size="11" fill="#888888">Dashboard</text>
  <rect x="18" y="122" width="16" height="16" rx="2" fill="#555555"/>
  <text x="42" y="135" font-size="11" fill="#888888">Menu</text>
  <rect x="18" y="162" width="16" height="16" rx="2" fill="#555555"/>
  <text x="42" y="175" font-size="11" fill="#888888">Meja &amp; QR</text>
  <rect x="18" y="202" width="16" height="16" rx="2" fill="#555555"/>
  <text x="42" y="215" font-size="11" fill="#888888">Metode Pembayaran</text>
  <rect x="0" y="232" width="4" height="40" fill="#AAAAAA"/>
  <rect x="0" y="232" width="240" height="40" fill="rgba(255,255,255,0.08)"/>
  <rect x="18" y="242" width="16" height="16" rx="2" fill="#888888"/>
  <text x="42" y="255" font-size="11" fill="#CCCCCC">Pesanan</text>
  <rect x="18" y="282" width="16" height="16" rx="2" fill="#555555"/>
  <text x="42" y="295" font-size="11" fill="#888888">Laporan</text>
  <rect x="10" y="880" width="220" height="30" rx="4" fill="#555555"/>
  <text x="120" y="899" text-anchor="middle" font-size="11" fill="#999999">Dark Mode</text>
  <rect x="10" y="916" width="220" height="28" rx="4" fill="#666666"/>
  <text x="120" y="934" text-anchor="middle" font-size="11" fill="#999999">Logout</text>
  <!-- Topbar -->
  <rect x="240" y="0" width="1200" height="52" fill="#CCCCCC"/>
  <rect x="257" y="17" width="18" height="5" rx="1" fill="#999999"/>
  <rect x="257" y="26" width="14" height="5" rx="1" fill="#999999"/>
  <rect x="257" y="35" width="16" height="5" rx="1" fill="#999999"/>
  <rect x="1330" y="18" width="80" height="16" rx="3" fill="#BBBBBB"/>
  <!-- content-header -->
  <text x="260" y="82" font-size="20" font-weight="bold" fill="#555555">Detail Pesanan #101</text>
  <rect x="260" y="90" width="180" height="8" rx="2" fill="#DDDDDD"/>
  <!-- LEFT: Item Pesanan card (col-8) -->
  <rect x="260" y="108" width="720" height="500" rx="6" fill="#FFFFFF" stroke="#DDDDDD" stroke-width="1"/>
  <rect x="260" y="108" width="720" height="44" rx="6" fill="#EEEEEE"/>
  <rect x="260" y="130" width="720" height="22" fill="#EEEEEE"/>
  <rect x="278" y="120" width="16" height="16" rx="2" fill="#DDDDDD"/>
  <text x="302" y="133" font-size="12" font-weight="bold" fill="#666666">Item Pesanan</text>
  <!-- Table header -->
  <rect x="274" y="164" width="692" height="28" rx="4" fill="#E5E5E5"/>
  <text x="288" y="182" font-size="9" font-weight="bold" fill="#888888">MENU</text>
  <text x="480" y="182" font-size="9" font-weight="bold" fill="#888888">JUMLAH</text>
  <text x="580" y="182" font-size="9" font-weight="bold" fill="#888888">HARGA</text>
  <text x="700" y="182" font-size="9" font-weight="bold" fill="#888888">SUBTOTAL</text>
  <!-- Row 1 -->
  <rect x="288" y="204" width="150" height="8" rx="2" fill="#E0E0E0"/>
  <rect x="480" y="204" width="30" height="8" rx="2" fill="#E0E0E0"/>
  <rect x="580" y="204" width="70" height="8" rx="2" fill="#E0E0E0"/>
  <rect x="700" y="204" width="80" height="8" rx="2" fill="#E0E0E0"/>
  <rect x="274" y="224" width="692" height="1" fill="#F0F0F0"/>
  <!-- Row 2 -->
  <rect x="288" y="238" width="120" height="8" rx="2" fill="#E0E0E0"/>
  <rect x="480" y="238" width="30" height="8" rx="2" fill="#E0E0E0"/>
  <rect x="580" y="238" width="70" height="8" rx="2" fill="#E0E0E0"/>
  <rect x="700" y="238" width="80" height="8" rx="2" fill="#E0E0E0"/>
  <rect x="274" y="258" width="692" height="1" fill="#F0F0F0"/>
  <!-- Row 3 -->
  <rect x="288" y="272" width="140" height="8" rx="2" fill="#E0E0E0"/>
  <rect x="480" y="272" width="30" height="8" rx="2" fill="#E0E0E0"/>
  <rect x="580" y="272" width="70" height="8" rx="2" fill="#E0E0E0"/>
  <rect x="700" y="272" width="80" height="8" rx="2" fill="#E0E0E0"/>
  <!-- Total row -->
  <rect x="274" y="296" width="692" height="40" rx="4" fill="#F5F5F5"/>
  <rect x="496" y="308" width="60" height="8" rx="2" fill="#CCCCCC"/>
  <text x="810" y="319" text-anchor="end" font-size="10" fill="#AAAAAA">TOTAL:</text>
  <rect x="640" y="308" width="100" height="8" rx="2" fill="#CCCCCC"/>
  <!-- RIGHT: Informasi Pesanan card (col-4) -->
  <rect x="996" y="108" width="384" height="740" rx="6" fill="#FFFFFF" stroke="#DDDDDD" stroke-width="1"/>
  <rect x="996" y="108" width="384" height="44" rx="6" fill="#EEEEEE"/>
  <rect x="996" y="130" width="384" height="22" fill="#EEEEEE"/>
  <rect x="1014" y="120" width="16" height="16" rx="2" fill="#DDDDDD"/>
  <text x="1038" y="133" font-size="12" font-weight="bold" fill="#666666">Informasi Pesanan</text>
  <!-- Info rows -->
  <text x="1014" y="172" font-size="9" font-weight="bold" fill="#888888">MEJA / LANTAI</text>
  <rect x="1014" y="178" width="140" height="8" rx="2" fill="#E0E0E0"/>
  <rect x="1014" y="198" width="352" height="1" fill="#F0F0F0"/>
  <text x="1014" y="218" font-size="9" font-weight="bold" fill="#888888">PELANGGAN</text>
  <rect x="1014" y="224" width="120" height="8" rx="2" fill="#E0E0E0"/>
  <rect x="1014" y="244" width="352" height="1" fill="#F0F0F0"/>
  <text x="1014" y="264" font-size="9" font-weight="bold" fill="#888888">METODE PEMBAYARAN</text>
  <rect x="1014" y="270" width="100" height="8" rx="2" fill="#E0E0E0"/>
  <rect x="1014" y="290" width="352" height="1" fill="#F0F0F0"/>
  <text x="1014" y="310" font-size="9" font-weight="bold" fill="#888888">WAKTU PEMESANAN</text>
  <rect x="1014" y="316" width="130" height="8" rx="2" fill="#E0E0E0"/>
  <rect x="1014" y="336" width="352" height="1" fill="#F0F0F0"/>
  <text x="1014" y="356" font-size="9" font-weight="bold" fill="#888888">STATUS PESANAN</text>
  <rect x="1014" y="362" width="70" height="16" rx="8" fill="#EEEEEE"/>
  <rect x="1014" y="390" width="352" height="1" fill="#F0F0F0"/>
  <text x="1014" y="410" font-size="9" font-weight="bold" fill="#888888">STATUS PEMBAYARAN</text>
  <rect x="1014" y="416" width="80" height="16" rx="8" fill="#EEEEEE"/>
  <rect x="1014" y="444" width="352" height="1" fill="#DDDDDD"/>
  <!-- Ubah Status dropdown -->
  <text x="1014" y="464" font-size="9" font-weight="bold" fill="#888888">UBAH STATUS PESANAN</text>
  <rect x="1014" y="470" width="352" height="36" rx="4" fill="#FAFAFA" stroke="#CCCCCC" stroke-width="1"/>
  <rect x="1026" y="484" width="80" height="8" rx="2" fill="#DDDDDD"/>
  <text x="1370" y="492" text-anchor="end" font-size="11" fill="#AAAAAA">v</text>
  <rect x="1014" y="516" width="352" height="36" rx="4" fill="#CCCCCC"/>
  <text x="1190" y="538" text-anchor="middle" font-size="11" fill="#666666">Update Status</text>
  <!-- Verifikasi Pembayaran button -->
  <rect x="1014" y="566" width="352" height="40" rx="4" fill="#DDDDDD"/>
  <text x="1190" y="590" text-anchor="middle" font-size="11" fill="#666666">Verifikasi Pembayaran</text>
  <!-- Divider -->
  <rect x="1014" y="618" width="352" height="1" fill="#DDDDDD"/>
  <!-- Hapus Pesanan button -->
  <rect x="1014" y="630" width="352" height="40" rx="4" fill="#EEEEEE" stroke="#CCCCCC" stroke-width="1"/>
  <text x="1190" y="654" text-anchor="middle" font-size="11" fill="#888888">Hapus Pesanan</text>
  <!-- Footer -->
  <rect x="240" y="908" width="1200" height="36" fill="#F8F8F8" stroke="#EEEEEE" stroke-width="1"/>
  <text x="840" y="922" text-anchor="middle" font-size="10" font-weight="bold" fill="#666666">Copyright 2025 Little Palembang. All rights reserved.</text>
  <text x="840" y="936" text-anchor="middle" font-size="9" fill="#AAAAAA">Lorok Pakjo, Kec. Ilir Bar. I, Kota Palembang, Sumatera Selatan.</text>
</svg>
